<svg width="91" height="92" viewBox="0 0 91 92" fill="none" xmlns="http://www.w3.org/2000/svg">
<path d="M7.81445 0L77.8915 1.76874C82.2406 1.88096 85.5291 5.7444 84.9292 10.046L75.1922 79.727C74.6137 83.8629 70.6717 86.6683 66.5637 85.8615L5.88096 73.9238C2.44781 73.2505 -0.0212854 70.2367 0.000138339 66.7473L0.337565 7.23527C0.358989 3.16343 3.73322 -0.0961883 7.81445 0.0053407V0Z" fill="#78A7C9"/>
<path d="M13.8018 6.50488L14.3145 6.51758V6.5127L83.8789 8.26855C87.9309 8.37326 90.9918 11.9723 90.4336 15.9766L80.6973 85.6572C80.1755 89.3879 76.7138 91.958 73.0186 91.4316L72.6602 91.3711L11.9775 79.4336L11.6797 79.3682C8.63733 78.6301 6.48068 75.8968 6.5 72.75L6.83789 13.2383C6.85783 9.44828 9.99876 6.41042 13.8018 6.50488Z" stroke="#193C71"/>
<g clip-path="url(#clip0_11118_15302)">
<path d="M43.7773 22.5273L45.1055 23.3086C45.418 23.543 45.8086 23.6211 46.1992 23.6211L47.7617 23.543C49.0117 23.543 50.1836 24.2461 50.8086 25.3398L51.5117 26.668C51.7461 27.0586 51.9805 27.293 52.3711 27.5273L53.6992 28.2305C54.793 28.8555 55.4961 30.0273 55.418 31.2773V32.8398C55.418 33.2305 55.4961 33.6211 55.7305 33.9336L56.5117 35.2617C57.2148 36.3555 57.2148 37.6836 56.5117 38.7773L55.7305 40.1055C55.4961 40.418 55.418 40.8086 55.418 41.1992V42.7617C55.4961 44.0117 54.793 45.1836 53.6992 45.7305L52.3711 46.5117C51.9805 46.7461 51.7461 46.9805 51.5117 47.3711L50.8086 48.6992C50.1836 49.793 49.0117 50.4961 47.7617 50.418H46.1992C45.8086 50.418 45.418 50.4961 45.1055 50.7305L43.7773 51.5117C42.6836 52.1367 41.3555 52.1367 40.2617 51.5117L38.9336 50.7305C38.6211 50.4961 38.2305 50.418 37.8398 50.418H36.2773C35.0273 50.4961 33.8555 49.793 33.2305 48.6992L32.5273 47.3711C32.293 46.9805 32.0586 46.668 31.668 46.5117L30.3398 45.7305C29.2461 45.1836 28.543 44.0117 28.6211 42.7617V41.1992C28.6211 40.8086 28.543 40.418 28.3086 40.1055L27.5273 38.7773C26.8242 37.6836 26.8242 36.3555 27.5273 35.2617L28.3086 33.9336C28.543 33.6211 28.6211 33.2305 28.6211 32.8398V31.2773C28.543 30.0273 29.2461 28.8555 30.3398 28.2305L31.668 27.5273C32.0586 27.293 32.293 27.0586 32.5273 26.668L33.3086 25.3398C33.8555 24.2461 35.0273 23.543 36.2773 23.543L37.8398 23.6211C38.2305 23.6211 38.6211 23.543 38.9336 23.3086L40.2617 22.5273C41.3555 21.8242 42.6836 21.8242 43.7773 22.5273ZM40.9648 23.543L39.6367 24.4023C39.0898 24.7148 38.4648 24.8711 37.8398 24.8711L36.1992 24.793C35.4961 24.793 34.7148 25.2617 34.4023 25.8867L33.6211 27.293C33.3086 27.8398 32.8398 28.3086 32.293 28.6211L30.8867 29.3242C30.2617 29.7148 29.793 30.418 29.8711 31.1992V32.7617C29.8711 33.4648 29.7148 34.0898 29.4023 34.6367L28.543 35.9648C28.1523 36.5898 28.1523 37.4492 28.543 38.0742L29.4023 39.4023C29.7148 39.9492 29.8711 40.5742 29.8711 41.1992V42.8398C29.793 43.543 30.2617 44.3242 30.8867 44.6367L32.293 45.418C32.8398 45.7305 33.3086 46.1992 33.6211 46.7461L34.4023 48.1523C34.7148 48.7773 35.4961 49.2461 36.1992 49.168H37.8398C38.4648 49.168 39.0898 49.3242 39.6367 49.6367L40.9648 50.4961C41.5898 50.8867 42.4492 50.8867 43.0742 50.4961L44.4023 49.6367C44.9492 49.3242 45.5742 49.168 46.2773 49.168H47.8398C48.6211 49.2461 49.3242 48.7773 49.7148 48.1523L50.418 46.7461C50.7305 46.1992 51.1992 45.7305 51.7461 45.418L53.1523 44.6367C53.7773 44.3242 54.2461 43.543 54.2461 42.8398L54.168 41.1992C54.168 40.5742 54.3242 39.9492 54.6367 39.4023L55.4961 38.0742C55.8867 37.4492 55.8867 36.5898 55.4961 35.9648L54.6367 34.6367C54.3242 34.0898 54.168 33.4648 54.168 32.7617L54.2461 31.1992C54.2461 30.418 53.7773 29.7148 53.1523 29.3242L51.7461 28.6211C51.1992 28.3086 50.7305 27.8398 50.418 27.293L49.7148 25.8867C49.3242 25.2617 48.6211 24.793 47.8398 24.793L46.2773 24.8711C45.5742 24.8711 44.9492 24.7148 44.4023 24.4023L43.0742 23.543C42.4492 23.1523 41.5898 23.1523 40.9648 23.543ZM47.6836 36.9805C47.6836 35.0273 46.5898 33.1523 44.8711 32.1367C43.0742 31.1211 40.9648 31.1211 39.2461 32.1367C37.4492 33.1523 36.4336 35.0273 36.4336 36.9805C36.4336 39.0117 37.4492 40.8867 39.2461 41.9023C40.9648 42.918 43.0742 42.918 44.8711 41.9023C46.5898 40.8867 47.6836 39.0117 47.6836 36.9805ZM42.0586 30.1055C44.4805 30.1055 46.7461 31.4336 47.9961 33.543C49.168 35.7305 49.168 38.3086 47.9961 40.418C46.7461 42.6055 44.4805 43.8555 42.0586 43.8555C39.5586 43.8555 37.293 42.6055 36.043 40.418C34.8711 38.3086 34.8711 35.7305 36.043 33.543C37.293 31.4336 39.5586 30.1055 42.0586 30.1055ZM30.1055 48.6211H30.0273C30.1055 48.6992 30.1836 48.7773 30.2617 48.7773C30.3398 48.9336 30.5742 49.0898 30.8867 49.7148C30.8867 49.793 30.8867 49.793 30.9648 49.8711L28.3867 56.7461C28.3867 56.9023 28.3867 57.0586 28.3867 57.1367C28.543 57.3711 28.7773 57.5273 29.0117 57.4492L33.1523 56.4336C33.3867 56.3555 33.6992 56.5117 33.8555 56.7461L35.4961 60.5742C35.4961 60.7305 35.6523 60.8086 35.8086 60.8086C35.8867 60.8086 36.043 60.7305 36.043 60.5742L38.9336 53.6992C39.3242 53.9336 39.7148 54.0898 40.1055 54.2461L37.2148 61.043C36.9805 61.668 36.4336 61.9805 35.8086 61.9805C35.1836 61.9805 34.5586 61.668 34.3242 61.043L32.918 57.7617L29.3242 58.6211C28.543 58.8555 27.6836 58.4648 27.293 57.7617C27.0586 57.293 27.0586 56.8242 27.2148 56.3555L30.1055 48.6211ZM43.9336 54.2461C44.3242 54.0898 44.7148 53.9336 45.1055 53.6992L47.9961 60.5742C47.9961 60.6523 48.1523 60.7305 48.2305 60.7305C48.3867 60.7305 48.543 60.6523 48.543 60.5742L50.1836 56.7461C50.3398 56.5117 50.6523 56.3555 50.8867 56.4336L55.0273 57.4492C55.2617 57.4492 55.4961 57.3711 55.6523 57.1367C55.6523 57.0586 55.6523 56.9023 55.6523 56.7461L53.0742 49.8711C53.1523 49.793 53.1523 49.793 53.1523 49.7148C53.4648 49.0898 53.6992 48.9336 53.7773 48.7773C53.8555 48.7773 53.8555 48.6992 54.0117 48.6211L56.8242 56.3555C56.9805 56.7461 56.9805 57.293 56.7461 57.6836C56.3555 58.4648 55.5742 58.8555 54.7148 58.6211L51.1211 57.7617L49.7148 61.043C49.4805 61.668 48.9336 61.9805 48.3086 61.9805C47.6055 61.9805 47.0586 61.5898 46.8242 61.043L43.9336 54.2461Z" fill="#193C71"/>
</g>
<defs>
<clipPath id="clip0_11118_15302">
<rect width="40" height="40" fill="white" transform="translate(22 22)"/>
</clipPath>
</defs>
</svg>
