<svg width="91" height="92" viewBox="0 0 91 92" fill="none" xmlns="http://www.w3.org/2000/svg">
<path d="M7.81445 0L77.8915 1.76874C82.2406 1.88096 85.5291 5.7444 84.9292 10.046L75.1922 79.727C74.6137 83.8629 70.6717 86.6683 66.5637 85.8615L5.88096 73.9238C2.44781 73.2505 -0.0212854 70.2367 0.000138339 66.7473L0.337565 7.23527C0.358989 3.16343 3.73322 -0.0961883 7.81445 0.0053407V0Z" fill="#78A7C9"/>
<path d="M13.8018 6.50488L14.3145 6.51758V6.5127L83.8789 8.26855C87.9309 8.37326 90.9918 11.9723 90.4336 15.9766L80.6973 85.6572C80.1755 89.3879 76.7138 91.958 73.0186 91.4316L72.6602 91.3711L11.9775 79.4336L11.6797 79.3682C8.63733 78.6301 6.48068 75.8968 6.5 72.75L6.83789 13.2383C6.85783 9.44828 9.99876 6.41042 13.8018 6.50488Z" stroke="#193C71"/>
<path d="M50.46 21C50.8052 21 51.085 21.2798 51.085 21.625V26H55.835L56.0919 26.0068C58.7339 26.1405 60.835 28.3247 60.835 31V56C60.835 58.6753 58.7339 60.8595 56.0919 60.9932L55.835 61H29.835C27.1597 61 24.9756 58.8989 24.8419 56.2568L24.835 56V31C24.835 28.2386 27.0736 26 29.835 26H33.835V21.625C33.835 21.2798 34.1148 21 34.46 21C34.8052 21 35.085 21.2798 35.085 21.625V26H49.835V21.625C49.835 21.2798 50.1148 21 50.46 21ZM26.085 56C26.085 58.0711 27.764 59.75 29.835 59.75H55.835C57.9061 59.75 59.585 58.0711 59.585 56V36.25H26.085V56ZM29.835 27.25C27.764 27.25 26.085 28.9289 26.085 31V35H59.585V31C59.585 28.9289 57.9061 27.25 55.835 27.25H51.085V30.375C51.085 30.7202 50.8052 31 50.46 31C50.1148 31 49.835 30.7202 49.835 30.375V27.25H35.085V30.375C35.085 30.7202 34.8052 31 34.46 31C34.1148 31 33.835 30.7202 33.835 30.375V27.25H29.835Z" fill="#193C71"/>
<path d="M37.335 49.75V51H32.335V49.75H37.335ZM38.585 48.5V43.5C38.585 42.8096 38.0254 42.25 37.335 42.25H32.335C31.6447 42.25 31.085 42.8096 31.085 43.5V48.5C31.085 49.1904 31.6447 49.75 32.335 49.75V51C30.9543 51 29.835 49.8807 29.835 48.5V43.5C29.835 42.2057 30.8186 41.1408 32.0792 41.0127L32.335 41H37.335L37.5909 41.0127C38.8514 41.1408 39.835 42.2057 39.835 43.5V48.5L39.8223 48.7559C39.6942 50.0164 38.6294 51 37.335 51V49.75C38.0254 49.75 38.585 49.1904 38.585 48.5Z" fill="#193C71"/>
</svg>
