<svg width="91" height="92" viewBox="0 0 91 92" fill="none" xmlns="http://www.w3.org/2000/svg">
<path d="M7.81445 0L77.8915 1.76874C82.2406 1.88096 85.5291 5.7444 84.9292 10.046L75.1922 79.727C74.6137 83.8629 70.6717 86.6683 66.5637 85.8615L5.88096 73.9238C2.44781 73.2505 -0.0212854 70.2367 0.000138339 66.7473L0.337565 7.23527C0.358989 3.16343 3.73322 -0.0961883 7.81445 0.0053407V0Z" fill="#78A7C9"/>
<path d="M13.8018 6.50488L14.3145 6.51758V6.5127L83.8789 8.26855C87.9309 8.37326 90.9918 11.9723 90.4336 15.9766L80.6973 85.6572C80.1755 89.3879 76.7138 91.958 73.0186 91.4316L72.6602 91.3711L11.9775 79.4336L11.6797 79.3682C8.63733 78.6301 6.48068 75.8968 6.5 72.75L6.83789 13.2383C6.85783 9.44828 9.99876 6.41042 13.8018 6.50488Z" stroke="#193C71"/>
<path d="M37.3281 30H40.1313L38.9094 31.1681H37.3281C35.3156 31.1681 33.375 31.8982 31.7937 33.2853L29.35 35.4024V33.8693L31.075 32.3362C32.8 30.8761 35.0281 30 37.3281 30ZM27.05 49.8576H26.9781H27.2656C28.4875 49.8576 29.6375 50.3686 30.5 51.2447L32.0094 52.7778L34.8125 55.698C36.0344 56.8661 37.8313 56.8661 39.0531 55.771C39.2688 55.625 39.4125 55.406 39.5562 55.187C39.7 55.041 39.8438 54.968 39.9875 54.968C40.1313 54.968 40.3469 55.041 40.4188 55.114L41.2812 55.9171C42.4312 57.1582 44.3719 57.0851 45.45 55.844C46.0969 55.114 46.3125 54.1649 46.1688 53.2888C46.0969 53.0698 46.2406 52.7778 46.4563 52.6318C46.6719 52.5588 46.9594 52.5588 47.1031 52.7778L47.175 52.8508C48.2531 53.9459 49.9781 53.9459 51.1281 52.9238C52.35 51.8287 52.4219 49.9306 51.2719 48.6895L44.0844 41.3889L40.4906 44.8202C38.8375 46.2803 36.3938 46.2803 34.7406 44.8202C32.8719 43.141 32.8719 40.2208 34.6687 38.4687L40.9219 32.4092C42.575 30.8761 44.6594 30 46.8875 30C48.9 30 50.9125 30.7301 52.4219 32.1172L54.65 33.9423V35.4754L51.7031 32.9932C50.3375 31.8251 48.6844 31.1681 46.8875 31.1681C44.9469 31.1681 43.15 31.9712 41.7125 33.2853L35.4594 39.3447C34.1656 40.5858 34.1656 42.703 35.5312 43.9441C36.6812 45.0392 38.4781 45.0392 39.7 43.9441L45.1625 38.8337C45.3781 38.6147 45.7375 38.6147 45.9531 38.8337C46.1688 39.0527 46.1688 39.4177 45.9531 39.6368L44.875 40.5858L52.0625 47.8864C52.6375 48.4705 52.9969 49.1275 53.1406 49.9306H56.95V35.9135V34.7454H57.525H58.1H62.7C63.9219 34.7454 65 35.7675 65 37.0816V52.2668C65 53.5079 63.9219 54.6029 62.7 54.6029H59.25C57.9562 54.6029 56.95 53.5079 56.95 52.2668V51.0987H53.2125C53.1406 52.1208 52.7094 53.0698 51.9188 53.7999C50.625 54.968 48.7563 55.187 47.3188 54.3839C47.2469 55.187 46.8875 55.9901 46.3125 56.5741C44.8031 58.3993 42.0719 58.4723 40.4188 56.7931L40.1313 56.4281C39.9875 56.5011 39.9156 56.5741 39.8438 56.6471C38.1906 58.1802 35.6031 58.1072 34.0219 56.5011L32.2969 54.749L31.1469 53.5809L29.7094 52.1208C29.0625 51.4637 28.2 51.0257 27.2656 51.0257H27.05V52.1938C27.05 53.5079 25.9719 54.5299 24.75 54.5299H21.3C20.0063 54.5299 19 53.5079 19 52.1938V37.0086C19 35.7675 20.0063 34.6724 21.3 34.6724H25.9H26.475H27.05V35.8405V49.8576ZM25.9 35.8405H21.3C20.6531 35.8405 20.15 36.4245 20.15 37.0086V52.1938C20.15 52.8508 20.6531 53.3619 21.3 53.3619H24.75C25.325 53.3619 25.9 52.8508 25.9 52.1938V35.8405ZM62.7 35.8405H58.1V52.1938C58.1 52.8508 58.6031 53.3619 59.25 53.3619H62.7C63.275 53.3619 63.85 52.8508 63.85 52.1938V37.0086C63.85 36.4245 63.275 35.8405 62.7 35.8405Z" fill="#193C71"/>
</svg>
