<svg width="91" height="92" viewBox="0 0 91 92" fill="none" xmlns="http://www.w3.org/2000/svg">
<path d="M7.81445 0L77.8915 1.76874C82.2406 1.88096 85.5291 5.7444 84.9292 10.046L75.1922 79.727C74.6137 83.8629 70.6717 86.6683 66.5637 85.8615L5.88096 73.9238C2.44781 73.2505 -0.0212854 70.2367 0.000138339 66.7473L0.337565 7.23527C0.358989 3.16343 3.73322 -0.0961883 7.81445 0.0053407V0Z" fill="#78A7C9"/>
<path d="M13.8018 6.50488L14.3145 6.51758V6.5127L83.8789 8.26855C87.9309 8.37326 90.9918 11.9723 90.4336 15.9766L80.6973 85.6572C80.1755 89.3879 76.7138 91.958 73.0186 91.4316L72.6602 91.3711L11.9775 79.4336L11.6797 79.3682C8.63733 78.6301 6.48068 75.8968 6.5 72.75L6.83789 13.2383C6.85783 9.44828 9.99876 6.41042 13.8018 6.50488Z" stroke="#193C71"/>
<g clip-path="url(#clip0_11118_15311)">
<path d="M43.7452 22.1172L65.6202 41.4922C65.8546 41.7266 65.8546 42.1172 65.6983 42.4297C65.4639 42.6641 65.0733 42.6641 64.7608 42.4297L60.8546 38.9922V56.9609C60.8546 59.7734 58.5889 61.9609 55.8546 61.9609H30.8546C28.0421 61.9609 25.8546 59.7734 25.8546 56.9609V38.9922L21.8702 42.4297C21.6358 42.6641 21.1671 42.6641 21.0108 42.4297C20.7764 42.1172 20.7764 41.7266 21.0108 41.4922L42.8858 22.1172C43.1202 21.9609 43.5108 21.9609 43.7452 22.1172ZM27.1046 56.9609C27.1046 59.0703 28.7452 60.7109 30.8546 60.7109H55.8546C57.8858 60.7109 59.6046 59.0703 59.6046 56.9609V37.8203L43.3546 23.4453L27.1046 37.8203V56.9609ZM35.8546 43.9922V44.0703C35.8546 44.9297 36.1671 45.7109 36.7139 46.3359L42.8858 53.0547C42.9639 53.2109 43.1202 53.2109 43.3546 53.2109C43.5108 53.2109 43.6671 53.2109 43.7452 53.0547L49.9171 46.3359C50.5421 45.7109 50.8546 44.9297 50.8546 44.0703V43.9922C50.8546 42.1953 49.3702 40.7109 47.5733 40.7109C46.6358 40.7109 45.8546 41.1016 45.2296 41.7266L43.7452 43.1328C43.6671 43.2891 43.5108 43.3672 43.3546 43.3672C43.1202 43.3672 42.9639 43.2891 42.8858 43.1328L41.4014 41.7266C40.7764 41.1016 39.9952 40.7109 39.0577 40.7109C37.2608 40.7109 35.8546 42.1953 35.8546 43.9922ZM39.0577 39.4609C40.3077 39.4609 41.4796 40.0078 42.2608 40.7891L43.3546 41.8828L44.3702 40.7891C45.2296 40.0078 46.3233 39.4609 47.5733 39.4609C50.0733 39.4609 52.1046 41.4922 52.1046 43.9922V44.0703C52.1046 45.2422 51.6358 46.3359 50.8546 47.1953L44.6827 53.9141C44.3702 54.3047 43.8233 54.4609 43.3546 54.4609C42.8077 54.4609 42.2608 54.3047 41.9483 53.9141L35.7764 47.1953C34.9952 46.3359 34.6046 45.2422 34.6046 44.0703V43.9922C34.6046 41.4922 36.5577 39.4609 39.0577 39.4609Z" fill="#193C71"/>
</g>
<defs>
<clipPath id="clip0_11118_15311">
<rect width="45" height="40" fill="white" transform="translate(20.835 22)"/>
</clipPath>
</defs>
</svg>
