<svg width="91" height="92" viewBox="0 0 91 92" fill="none" xmlns="http://www.w3.org/2000/svg">
<path d="M7.81445 0L77.8915 1.76874C82.2406 1.88096 85.5291 5.7444 84.9292 10.046L75.1922 79.727C74.6137 83.8629 70.6717 86.6683 66.5637 85.8615L5.88096 73.9238C2.44781 73.2505 -0.0212854 70.2367 0.000138339 66.7473L0.337565 7.23527C0.358989 3.16343 3.73322 -0.0961883 7.81445 0.0053407V0Z" fill="#78A7C9"/>
<path d="M13.8018 6.50488L14.3145 6.51758V6.5127L83.8789 8.26855C87.9309 8.37326 90.9918 11.9723 90.4336 15.9766L80.6973 85.6572C80.1755 89.3879 76.7138 91.958 73.0186 91.4316L72.6602 91.3711L11.9775 79.4336L11.6797 79.3682C8.63733 78.6301 6.48068 75.8968 6.5 72.75L6.83789 13.2383C6.85783 9.44828 9.99876 6.41042 13.8018 6.50488Z" stroke="#193C71"/>
<g clip-path="url(#clip0_11118_15347)">
<path d="M23.2496 25.6665L26.372 22.5461C26.9965 21.922 28.0893 21.844 28.7919 22.3901L36.9102 28.6309C37.3785 29.021 37.6908 29.567 37.6908 30.1131V35.1058V35.7299V36.1199L45.1065 43.531C47.4483 41.6587 50.961 41.8147 53.1467 43.999L61.8894 52.7362C62.9042 53.6724 62.9042 55.3106 61.8894 56.2467L56.8936 61.2394C55.9569 62.2535 54.3176 62.2535 53.3809 61.2394L44.6381 52.5022C42.4524 50.3179 42.2963 46.8074 44.1698 44.4671L36.754 36.9781H36.4418H35.8173H30.8215C30.197 36.9781 29.6505 36.744 29.3383 36.276L23.0935 28.1628C22.469 27.4608 22.5471 26.3686 23.2496 25.6665ZM35.8173 35.7299H36.4418V35.1058V30.1131C36.4418 29.9571 36.2857 29.8011 36.1296 29.6451L28.0113 23.4042C27.7771 23.2482 27.4649 23.2482 27.2307 23.4822L24.1083 26.6026C23.8741 26.8367 23.8741 27.1487 24.0302 27.3827L30.275 35.4959C30.4312 35.6519 30.5873 35.7299 30.8215 35.7299H35.8173ZM52.288 44.8571C50.4146 42.9849 47.3702 42.9849 45.4968 44.8571C43.6233 46.7294 43.6233 49.7718 45.4968 51.6441L54.2395 60.3813C54.7079 60.8493 55.5666 60.8493 56.0349 60.3813L61.0308 55.3886C61.4991 54.9205 61.4991 54.0624 61.0308 53.5943L52.288 44.8571ZM24.3424 52.1902L35.9734 40.5666L36.8321 41.5027L25.2011 53.0483C24.4205 53.9064 23.9521 55.0765 23.9521 56.2467C23.9521 58.7431 25.9037 60.6933 28.4016 60.6933C29.5725 60.6933 30.7434 60.2253 31.6021 59.4451L40.657 50.3959C40.7351 50.786 40.8912 51.254 41.1254 51.6441L32.4607 60.3033C31.3679 61.3954 29.9628 61.9415 28.4016 61.9415C25.2011 61.9415 22.7032 59.4451 22.7032 56.2467C22.7032 54.6865 23.2496 53.2823 24.3424 52.1902ZM61.4211 34.4817C61.4211 33.1555 61.1869 31.9074 60.7185 30.7372L55.1763 36.276C54.7079 36.744 54.0054 36.9781 53.3809 36.9781H50.1804C48.7753 36.9781 47.6825 35.8859 47.6825 34.4817V31.2833C47.6825 30.6592 47.9167 29.9571 48.385 29.489L53.9273 23.9503C52.7564 23.4822 51.5074 23.2482 50.1804 23.2482C46.1993 23.2482 42.6866 25.3545 40.7351 28.3969L39.7203 27.6168C41.906 24.2623 45.809 22 50.1804 22C51.7416 22 53.2248 22.312 54.6298 22.8581C55.4104 23.1702 55.4885 24.1063 54.9421 24.7304L49.2437 30.4252C49.0095 30.6592 48.9314 30.9712 48.9314 31.2833V34.4817C48.9314 35.1838 49.4779 35.7299 50.1804 35.7299H53.3809C53.6931 35.7299 54.0054 35.6519 54.2395 35.4178L59.9379 29.7231C60.5624 29.099 61.4991 29.255 61.8114 30.0351C62.3578 31.4393 62.67 32.9215 62.67 34.4817C62.67 38.6943 60.5624 42.4388 57.3619 44.7011L56.5033 43.765C59.4696 41.7367 61.4211 38.3823 61.4211 34.4817ZM28.948 54.4525C29.5725 54.4525 30.197 55.0765 30.197 55.7006C30.197 56.4027 29.5725 56.9488 28.948 56.9488C28.2455 56.9488 27.699 56.4027 27.699 55.7006C27.699 55.0765 28.2455 54.4525 28.948 54.4525Z" fill="#193C71"/>
</g>
<defs>
<clipPath id="clip0_11118_15347">
<rect width="40" height="40" fill="white" transform="translate(22.67 22)"/>
</clipPath>
</defs>
</svg>
