<svg xmlns="http://www.w3.org/2000/svg" viewBox="0 0 300 68" width="300" height="68" role="img" aria-label="Queen City Comfort Co.">
  <g>
    <circle cx="34" cy="34" r="30" fill="#14545a" stroke="#c8942c" stroke-width="2"/>
    <polygon points="43.0,33.2 62.0,34.0 43.0,34.8" fill="#c8942c" opacity="0.45"/>
    <polygon points="42.9,35.6 61.0,41.2 42.5,37.0" fill="#c8942c" opacity="0.45"/>
    <polygon points="42.1,37.8 58.2,48.0 41.4,39.1" fill="#c8942c" opacity="0.45"/>
    <polygon points="40.9,39.8 53.8,53.8 39.8,40.9" fill="#c8942c" opacity="0.45"/>
    <polygon points="39.1,41.4 48.0,58.2 37.8,42.1" fill="#c8942c" opacity="0.45"/>
    <polygon points="37.0,42.5 41.2,61.0 35.6,42.9" fill="#c8942c" opacity="0.45"/>
    <polygon points="34.8,43.0 34.0,62.0 33.2,43.0" fill="#c8942c" opacity="0.45"/>
    <polygon points="32.4,42.9 26.8,61.0 31.0,42.5" fill="#c8942c" opacity="0.45"/>
    <polygon points="30.2,42.1 20.0,58.2 28.9,41.4" fill="#c8942c" opacity="0.45"/>
    <polygon points="28.2,40.9 14.2,53.8 27.1,39.8" fill="#c8942c" opacity="0.45"/>
    <polygon points="26.6,39.1 9.8,48.0 25.9,37.8" fill="#c8942c" opacity="0.45"/>
    <polygon points="25.5,37.0 7.0,41.2 25.1,35.6" fill="#c8942c" opacity="0.45"/>
    <polygon points="25.0,34.8 6.0,34.0 25.0,33.2" fill="#c8942c" opacity="0.45"/>
    <polygon points="25.1,32.4 7.0,26.8 25.5,31.0" fill="#c8942c" opacity="0.45"/>
    <polygon points="25.9,30.2 9.8,20.0 26.6,28.9" fill="#c8942c" opacity="0.45"/>
    <polygon points="27.1,28.2 14.2,14.2 28.2,27.1" fill="#c8942c" opacity="0.45"/>
    <polygon points="28.9,26.6 20.0,9.8 30.2,25.9" fill="#c8942c" opacity="0.45"/>
    <polygon points="31.0,25.5 26.8,7.0 32.4,25.1" fill="#c8942c" opacity="0.45"/>
    <polygon points="33.2,25.0 34.0,6.0 34.8,25.0" fill="#c8942c" opacity="0.45"/>
    <polygon points="35.6,25.1 41.2,7.0 37.0,25.5" fill="#c8942c" opacity="0.45"/>
    <polygon points="37.8,25.9 48.0,9.8 39.1,26.6" fill="#c8942c" opacity="0.45"/>
    <polygon points="39.8,27.1 53.8,14.2 40.9,28.2" fill="#c8942c" opacity="0.45"/>
    <polygon points="41.4,28.9 58.2,20.0 42.1,30.2" fill="#c8942c" opacity="0.45"/>
    <polygon points="42.5,31.0 61.0,26.8 42.9,32.4" fill="#c8942c" opacity="0.45"/>
    <circle cx="34" cy="34" r="15" fill="#0e3b40"/>
    <path d="M23.0,42.5 L23.0,30.5 L28.5,35.8 L34.0,27.5 L39.5,35.8 L45.0,30.5 L45.0,42.5 Z" fill="#f6efe0"/>
  </g>
  <g font-family="'Roboto Condensed','Arial Narrow',sans-serif">
    <text x="76" y="31" font-size="25" font-weight="800" letter-spacing="0.5" fill="#14545a">QUEEN CITY</text>
    <text x="77" y="52" font-size="15.5" font-weight="700" letter-spacing="3.4" fill="#c8942c">COMFORT CO.</text>
    <text x="223" y="31" font-size="25" font-weight="800" fill="#14545a">.</text>
  </g>
</svg>