<svg width="44" height="32" viewBox="0 0 44 32" fill="none" xmlns="http://www.w3.org/2000/svg">
<path d="M0 11.7188C0 5.27344 5.17578 0 11.7188 0H12.5C14.1602 0 15.625 1.46484 15.625 3.125C15.625 4.88281 14.1602 6.25 12.5 6.25H11.7188C8.69141 6.25 6.25 8.78906 6.25 11.7188V12.5H12.5C15.918 12.5 18.75 15.332 18.75 18.75V25C18.75 28.5156 15.918 31.25 12.5 31.25H6.25C2.73438 31.25 0 28.5156 0 25V21.875V18.75V11.7188ZM25 11.7188C25 5.27344 30.1758 0 36.7188 0H37.5C39.1602 0 40.625 1.46484 40.625 3.125C40.625 4.88281 39.1602 6.25 37.5 6.25H36.7188C33.6914 6.25 31.25 8.78906 31.25 11.7188V12.5H37.5C40.918 12.5 43.75 15.332 43.75 18.75V25C43.75 28.5156 40.918 31.25 37.5 31.25H31.25C27.7344 31.25 25 28.5156 25 25V21.875V18.75V11.7188Z" fill="black"/>
</svg>
