<svg width="109" height="16" viewBox="0 0 109 16" fill="none" xmlns="http://www.w3.org/2000/svg">
<path d="M16.9557 6.04621C16.8444 5.70813 16.539 5.46802 16.1778 5.43605L11.2712 4.99849L9.33094 0.538446C9.18788 0.211582 8.86207 0 8.50007 0C8.13807 0 7.81225 0.211582 7.66919 0.53921L5.72897 4.99849L0.821535 5.43605C0.460961 5.46878 0.156419 5.70813 0.0444859 6.04621C-0.0674476 6.38428 0.0359255 6.75509 0.30869 6.98884L4.01754 10.1833L2.92389 14.9147C2.84386 15.2626 2.98135 15.6222 3.27525 15.8308C3.43323 15.9429 3.61806 16 3.80444 16C3.96514 16 4.12455 15.9575 4.26761 15.8734L8.50007 13.389L12.731 15.8734C13.0406 16.0563 13.4308 16.0396 13.7241 15.8308C14.0181 15.6215 14.1555 15.2618 14.0755 14.9147L12.9818 10.1833L16.6907 6.98947C16.9634 6.75509 17.0676 6.38492 16.9557 6.04621Z" fill="#E8B835"/>
<path d="M16.9557 6.04621C16.8444 5.70813 16.539 5.46802 16.1778 5.43605L11.2712 4.99849L9.33094 0.538446C9.18788 0.211582 8.86207 0 8.50007 0C8.13807 0 7.81225 0.211582 7.66919 0.53921L5.72897 4.99849L0.821535 5.43605C0.460961 5.46878 0.156419 5.70813 0.0444859 6.04621C-0.0674476 6.38428 0.0359255 6.75509 0.30869 6.98884L4.01754 10.1833L2.92389 14.9147C2.84386 15.2626 2.98135 15.6222 3.27525 15.8308C3.43323 15.9429 3.61806 16 3.80444 16C3.96514 16 4.12455 15.9575 4.26761 15.8734L8.50007 13.389L12.731 15.8734C13.0406 16.0563 13.4308 16.0396 13.7241 15.8308C14.0181 15.6215 14.1555 15.2618 14.0755 14.9147L12.9818 10.1833L16.6907 6.98947C16.9634 6.75509 17.0676 6.38492 16.9557 6.04621Z" fill="#E8B835"/>
<path d="M16.9557 6.04621C16.8444 5.70813 16.539 5.46802 16.1778 5.43605L11.2712 4.99849L9.33094 0.538446C9.18788 0.211582 8.86207 0 8.50007 0C8.13807 0 7.81225 0.211582 7.66919 0.53921L5.72897 4.99849L0.821535 5.43605C0.460961 5.46878 0.156419 5.70813 0.0444859 6.04621C-0.0674476 6.38428 0.0359255 6.75509 0.30869 6.98884L4.01754 10.1833L2.92389 14.9147C2.84386 15.2626 2.98135 15.6222 3.27525 15.8308C3.43323 15.9429 3.61806 16 3.80444 16C3.96514 16 4.12455 15.9575 4.26761 15.8734L8.50007 13.389L12.731 15.8734C13.0406 16.0563 13.4308 16.0396 13.7241 15.8308C14.0181 15.6215 14.1555 15.2618 14.0755 14.9147L12.9818 10.1833L16.6907 6.98947C16.9634 6.75509 17.0676 6.38492 16.9557 6.04621Z" fill="#E8B835"/>
<path d="M39.9557 6.04621C39.8444 5.70813 39.539 5.46802 39.1778 5.43605L34.2712 4.99849L32.3309 0.538446C32.1879 0.211582 31.8621 0 31.5001 0C31.1381 0 30.8123 0.211582 30.6692 0.53921L28.729 4.99849L23.8215 5.43605C23.461 5.46878 23.1564 5.70813 23.0445 6.04621C22.9326 6.38428 23.0359 6.75509 23.3087 6.98884L27.0175 10.1833L25.9239 14.9147C25.8439 15.2626 25.9813 15.6222 26.2753 15.8308C26.4332 15.9429 26.6181 16 26.8044 16C26.9651 16 27.1245 15.9575 27.2676 15.8734L31.5001 13.389L35.731 15.8734C36.0406 16.0563 36.4308 16.0396 36.7241 15.8308C37.0181 15.6215 37.1555 15.2618 37.0755 14.9147L35.9818 10.1833L39.6907 6.98947C39.9634 6.75509 40.0676 6.38492 39.9557 6.04621Z" fill="#E8B835"/>
<path d="M39.9557 6.04621C39.8444 5.70813 39.539 5.46802 39.1778 5.43605L34.2712 4.99849L32.3309 0.538446C32.1879 0.211582 31.8621 0 31.5001 0C31.1381 0 30.8123 0.211582 30.6692 0.53921L28.729 4.99849L23.8215 5.43605C23.461 5.46878 23.1564 5.70813 23.0445 6.04621C22.9326 6.38428 23.0359 6.75509 23.3087 6.98884L27.0175 10.1833L25.9239 14.9147C25.8439 15.2626 25.9813 15.6222 26.2753 15.8308C26.4332 15.9429 26.6181 16 26.8044 16C26.9651 16 27.1245 15.9575 27.2676 15.8734L31.5001 13.389L35.731 15.8734C36.0406 16.0563 36.4308 16.0396 36.7241 15.8308C37.0181 15.6215 37.1555 15.2618 37.0755 14.9147L35.9818 10.1833L39.6907 6.98947C39.9634 6.75509 40.0676 6.38492 39.9557 6.04621Z" fill="#E8B835"/>
<path d="M39.9557 6.04621C39.8444 5.70813 39.539 5.46802 39.1778 5.43605L34.2712 4.99849L32.3309 0.538446C32.1879 0.211582 31.8621 0 31.5001 0C31.1381 0 30.8123 0.211582 30.6692 0.53921L28.729 4.99849L23.8215 5.43605C23.461 5.46878 23.1564 5.70813 23.0445 6.04621C22.9326 6.38428 23.0359 6.75509 23.3087 6.98884L27.0175 10.1833L25.9239 14.9147C25.8439 15.2626 25.9813 15.6222 26.2753 15.8308C26.4332 15.9429 26.6181 16 26.8044 16C26.9651 16 27.1245 15.9575 27.2676 15.8734L31.5001 13.389L35.731 15.8734C36.0406 16.0563 36.4308 16.0396 36.7241 15.8308C37.0181 15.6215 37.1555 15.2618 37.0755 14.9147L35.9818 10.1833L39.6907 6.98947C39.9634 6.75509 40.0676 6.38492 39.9557 6.04621Z" fill="#E8B835"/>
<path d="M62.9557 6.04621C62.8444 5.70813 62.539 5.46802 62.1778 5.43605L57.2712 4.99849L55.3309 0.538446C55.1879 0.211582 54.8621 0 54.5001 0C54.1381 0 53.8123 0.211582 53.6692 0.53921L51.729 4.99849L46.8215 5.43605C46.461 5.46878 46.1564 5.70813 46.0445 6.04621C45.9326 6.38428 46.0359 6.75509 46.3087 6.98884L50.0175 10.1833L48.9239 14.9147C48.8439 15.2626 48.9813 15.6222 49.2753 15.8308C49.4332 15.9429 49.6181 16 49.8044 16C49.9651 16 50.1245 15.9575 50.2676 15.8734L54.5001 13.389L58.731 15.8734C59.0406 16.0563 59.4308 16.0396 59.7241 15.8308C60.0181 15.6215 60.1555 15.2618 60.0755 14.9147L58.9818 10.1833L62.6907 6.98947C62.9634 6.75509 63.0676 6.38492 62.9557 6.04621Z" fill="#E8B835"/>
<path d="M62.9557 6.04621C62.8444 5.70813 62.539 5.46802 62.1778 5.43605L57.2712 4.99849L55.3309 0.538446C55.1879 0.211582 54.8621 0 54.5001 0C54.1381 0 53.8123 0.211582 53.6692 0.53921L51.729 4.99849L46.8215 5.43605C46.461 5.46878 46.1564 5.70813 46.0445 6.04621C45.9326 6.38428 46.0359 6.75509 46.3087 6.98884L50.0175 10.1833L48.9239 14.9147C48.8439 15.2626 48.9813 15.6222 49.2753 15.8308C49.4332 15.9429 49.6181 16 49.8044 16C49.9651 16 50.1245 15.9575 50.2676 15.8734L54.5001 13.389L58.731 15.8734C59.0406 16.0563 59.4308 16.0396 59.7241 15.8308C60.0181 15.6215 60.1555 15.2618 60.0755 14.9147L58.9818 10.1833L62.6907 6.98947C62.9634 6.75509 63.0676 6.38492 62.9557 6.04621Z" fill="#E8B835"/>
<path d="M62.9557 6.04621C62.8444 5.70813 62.539 5.46802 62.1778 5.43605L57.2712 4.99849L55.3309 0.538446C55.1879 0.211582 54.8621 0 54.5001 0C54.1381 0 53.8123 0.211582 53.6692 0.53921L51.729 4.99849L46.8215 5.43605C46.461 5.46878 46.1564 5.70813 46.0445 6.04621C45.9326 6.38428 46.0359 6.75509 46.3087 6.98884L50.0175 10.1833L48.9239 14.9147C48.8439 15.2626 48.9813 15.6222 49.2753 15.8308C49.4332 15.9429 49.6181 16 49.8044 16C49.9651 16 50.1245 15.9575 50.2676 15.8734L54.5001 13.389L58.731 15.8734C59.0406 16.0563 59.4308 16.0396 59.7241 15.8308C60.0181 15.6215 60.1555 15.2618 60.0755 14.9147L58.9818 10.1833L62.6907 6.98947C62.9634 6.75509 63.0676 6.38492 62.9557 6.04621Z" fill="#E8B835"/>
<path d="M85.9557 6.04621C85.8444 5.70813 85.539 5.46802 85.1778 5.43605L80.2712 4.99849L78.3309 0.538446C78.1879 0.211582 77.8621 0 77.5001 0C77.1381 0 76.8123 0.211582 76.6692 0.53921L74.729 4.99849L69.8215 5.43605C69.461 5.46878 69.1564 5.70813 69.0445 6.04621C68.9326 6.38428 69.0359 6.75509 69.3087 6.98884L73.0175 10.1833L71.9239 14.9147C71.8439 15.2626 71.9813 15.6222 72.2753 15.8308C72.4332 15.9429 72.6181 16 72.8044 16C72.9651 16 73.1245 15.9575 73.2676 15.8734L77.5001 13.389L81.731 15.8734C82.0406 16.0563 82.4308 16.0396 82.7241 15.8308C83.0181 15.6215 83.1555 15.2618 83.0755 14.9147L81.9818 10.1833L85.6907 6.98947C85.9634 6.75509 86.0676 6.38492 85.9557 6.04621Z" fill="#E8B835"/>
<path d="M85.9557 6.04621C85.8444 5.70813 85.539 5.46802 85.1778 5.43605L80.2712 4.99849L78.3309 0.538446C78.1879 0.211582 77.8621 0 77.5001 0C77.1381 0 76.8123 0.211582 76.6692 0.53921L74.729 4.99849L69.8215 5.43605C69.461 5.46878 69.1564 5.70813 69.0445 6.04621C68.9326 6.38428 69.0359 6.75509 69.3087 6.98884L73.0175 10.1833L71.9239 14.9147C71.8439 15.2626 71.9813 15.6222 72.2753 15.8308C72.4332 15.9429 72.6181 16 72.8044 16C72.9651 16 73.1245 15.9575 73.2676 15.8734L77.5001 13.389L81.731 15.8734C82.0406 16.0563 82.4308 16.0396 82.7241 15.8308C83.0181 15.6215 83.1555 15.2618 83.0755 14.9147L81.9818 10.1833L85.6907 6.98947C85.9634 6.75509 86.0676 6.38492 85.9557 6.04621Z" fill="#E8B835"/>
<path d="M85.9557 6.04621C85.8444 5.70813 85.539 5.46802 85.1778 5.43605L80.2712 4.99849L78.3309 0.538446C78.1879 0.211582 77.8621 0 77.5001 0C77.1381 0 76.8123 0.211582 76.6692 0.53921L74.729 4.99849L69.8215 5.43605C69.461 5.46878 69.1564 5.70813 69.0445 6.04621C68.9326 6.38428 69.0359 6.75509 69.3087 6.98884L73.0175 10.1833L71.9239 14.9147C71.8439 15.2626 71.9813 15.6222 72.2753 15.8308C72.4332 15.9429 72.6181 16 72.8044 16C72.9651 16 73.1245 15.9575 73.2676 15.8734L77.5001 13.389L81.731 15.8734C82.0406 16.0563 82.4308 16.0396 82.7241 15.8308C83.0181 15.6215 83.1555 15.2618 83.0755 14.9147L81.9818 10.1833L85.6907 6.98947C85.9634 6.75509 86.0676 6.38492 85.9557 6.04621Z" fill="#E8B835"/>
<path d="M108.956 6.04621C108.844 5.70813 108.539 5.46802 108.178 5.43605L103.271 4.99849L101.331 0.538446C101.188 0.211582 100.862 0 100.5 0C100.138 0 99.8123 0.211582 99.6692 0.53921L97.729 4.99849L92.8215 5.43605C92.461 5.46878 92.1564 5.70813 92.0445 6.04621C91.9326 6.38428 92.0359 6.75509 92.3087 6.98884L96.0175 10.1833L94.9239 14.9147C94.8439 15.2626 94.9813 15.6222 95.2753 15.8308C95.4332 15.9429 95.6181 16 95.8044 16C95.9651 16 96.1245 15.9575 96.2676 15.8734L100.5 13.389L104.731 15.8734C105.041 16.0563 105.431 16.0396 105.724 15.8308C106.018 15.6215 106.155 15.2618 106.075 14.9147L104.982 10.1833L108.691 6.98947C108.963 6.75509 109.068 6.38492 108.956 6.04621Z" fill="#E8B835"/>
<path d="M108.956 6.04621C108.844 5.70813 108.539 5.46802 108.178 5.43605L103.271 4.99849L101.331 0.538446C101.188 0.211582 100.862 0 100.5 0C100.138 0 99.8123 0.211582 99.6692 0.53921L97.729 4.99849L92.8215 5.43605C92.461 5.46878 92.1564 5.70813 92.0445 6.04621C91.9326 6.38428 92.0359 6.75509 92.3087 6.98884L96.0175 10.1833L94.9239 14.9147C94.8439 15.2626 94.9813 15.6222 95.2753 15.8308C95.4332 15.9429 95.6181 16 95.8044 16C95.9651 16 96.1245 15.9575 96.2676 15.8734L100.5 13.389L104.731 15.8734C105.041 16.0563 105.431 16.0396 105.724 15.8308C106.018 15.6215 106.155 15.2618 106.075 14.9147L104.982 10.1833L108.691 6.98947C108.963 6.75509 109.068 6.38492 108.956 6.04621Z" fill="#E8B835"/>
<path d="M108.956 6.04621C108.844 5.70813 108.539 5.46802 108.178 5.43605L103.271 4.99849L101.331 0.538446C101.188 0.211582 100.862 0 100.5 0C100.138 0 99.8123 0.211582 99.6692 0.53921L97.729 4.99849L92.8215 5.43605C92.461 5.46878 92.1564 5.70813 92.0445 6.04621C91.9326 6.38428 92.0359 6.75509 92.3087 6.98884L96.0175 10.1833L94.9239 14.9147C94.8439 15.2626 94.9813 15.6222 95.2753 15.8308C95.4332 15.9429 95.6181 16 95.8044 16C95.9651 16 96.1245 15.9575 96.2676 15.8734L100.5 13.389L104.731 15.8734C105.041 16.0563 105.431 16.0396 105.724 15.8308C106.018 15.6215 106.155 15.2618 106.075 14.9147L104.982 10.1833L108.691 6.98947C108.963 6.75509 109.068 6.38492 108.956 6.04621Z" fill="#E8B835"/>
</svg>
