<svg width="91" height="92" viewBox="0 0 91 92" fill="none" xmlns="http://www.w3.org/2000/svg">
<path d="M7.81445 0L77.8915 1.76874C82.2406 1.88096 85.5291 5.7444 84.9292 10.046L75.1922 79.727C74.6137 83.8629 70.6717 86.6683 66.5637 85.8615L5.88096 73.9238C2.44781 73.2505 -0.0212854 70.2367 0.000138339 66.7473L0.337565 7.23527C0.358989 3.16343 3.73322 -0.0961883 7.81445 0.0053407V0Z" fill="#78A7C9"/>
<path d="M13.8018 6.50488L14.3145 6.51758V6.5127L83.8789 8.26855C87.9309 8.37326 90.9918 11.9723 90.4336 15.9766L80.6973 85.6572C80.1755 89.3879 76.7138 91.958 73.0186 91.4316L72.6602 91.3711L11.9775 79.4336L11.6797 79.3682C8.63733 78.6301 6.48068 75.8968 6.5 72.75L6.83789 13.2383C6.85783 9.44828 9.99876 6.41042 13.8018 6.50488Z" stroke="#193C71"/>
<path d="M44.6232 27.1029L44.2325 28.3529C43.8419 29.9154 42.9825 31.6342 41.9669 33.1186C40.8732 34.6811 39.6232 36.0092 38.295 36.8686L38.0607 37.0248C37.3575 37.4936 36.7325 38.1186 36.2638 38.7436C36.0294 39.0561 35.6388 39.1342 35.4044 38.8998C35.0919 38.7436 35.0138 38.3529 35.2482 38.0404C35.795 37.2592 36.4982 36.5561 37.3575 36.0092L37.5919 35.8529C38.7638 35.1498 39.9357 33.8217 40.9513 32.4154C41.8888 31.0092 42.67 29.3686 43.0607 28.0404L43.3732 26.7904C43.92 24.7592 46.0294 23.5873 47.9825 24.1342C50.0138 24.6811 51.1857 26.7123 50.6388 28.7436L50.2482 29.9936C49.8575 31.4779 48.92 33.6654 48.0607 35.2279H57.67C60.0138 35.2279 62.045 37.2592 62.045 39.6029C62.045 41.0092 61.42 42.1811 60.4044 42.9623C60.6388 43.5092 60.795 44.0561 60.795 44.6029C60.795 46.0873 60.0919 47.3373 58.9982 48.1967C59.3107 48.8217 59.545 49.5248 59.545 50.2279C59.545 52.0248 58.4513 53.5092 56.9669 54.2123C56.9669 54.3686 57.045 54.5248 57.045 54.6029C57.045 57.0248 55.0138 58.9779 52.67 58.9779H45.0138C43.4513 58.9779 41.8107 58.5092 40.4825 57.6498L37.5138 55.6186C36.5763 54.9936 35.795 54.2123 35.2482 53.3529C35.0138 53.0404 35.0919 52.6498 35.4044 52.4936C35.7169 52.2592 36.1075 52.3373 36.2638 52.6498C36.7325 53.4311 37.4357 54.0561 38.2169 54.6029L41.1857 56.6342C42.3575 57.3373 43.6857 57.7279 45.0138 57.7279H52.5919C54.3888 57.7279 55.7169 56.3217 55.7169 54.6029C55.7169 54.3686 55.7169 54.2123 55.7169 53.9779C55.6388 53.6654 55.795 53.3529 56.1075 53.1967C57.3575 52.8061 58.2169 51.6342 58.2169 50.2279C58.2169 49.5248 57.9825 48.8998 57.5919 48.3529C57.5138 48.1967 57.4357 48.0404 57.5138 47.8061C57.5138 47.6498 57.67 47.4936 57.8263 47.4154C58.8419 46.8686 59.4669 45.8529 59.4669 44.6029C59.4669 44.0561 59.3888 43.5873 59.0763 43.1186C58.92 42.8061 58.9982 42.4154 59.3107 42.2592C60.17 41.7123 60.795 40.7748 60.795 39.6029C60.795 37.8842 59.3888 36.4779 57.67 36.4779H46.9669C46.7325 36.4779 46.4982 36.3998 46.42 36.1654C46.3419 36.0092 46.3419 35.7748 46.42 35.5404C47.3575 34.1342 48.6075 31.3217 49.0763 29.6811L49.3888 28.4311C49.7794 27.1029 48.9982 25.6967 47.67 25.3842C46.3419 24.9936 44.9357 25.7748 44.6232 27.1029ZM25.17 37.7279C24.4669 37.7279 23.92 38.3529 23.92 38.9779V56.4779C23.92 57.1811 24.4669 57.7279 25.17 57.7279H30.17C30.795 57.7279 31.42 57.1811 31.42 56.4779V38.9779C31.42 38.3529 30.795 37.7279 30.17 37.7279H25.17ZM22.67 38.9779C22.67 37.6498 23.7638 36.4779 25.17 36.4779H30.17C31.4982 36.4779 32.67 37.6498 32.67 38.9779V56.4779C32.67 57.8842 31.4982 58.9779 30.17 58.9779H25.17C23.7638 58.9779 22.67 57.8842 22.67 56.4779V38.9779Z" fill="#193C71"/>
</svg>
