<svg preserveAspectRatio="none" width="100%" height="100%" overflow="visible" style="display: block;" viewBox="0 0 30.0003 28" fill="none" xmlns="http://www.w3.org/2000/svg">
<g id="Group">
<g id="Vector">
</g>
<path id="Vector_2" d="M21.1242 27.974C21.0312 27.933 20.9452 27.878 20.8692 27.811C20.6432 27.629 20.4742 27.574 20.0552 27.545C19.4172 27.502 19.2092 27.448 18.7022 27.195C18.3862 27.041 18.0662 26.896 17.7422 26.76C17.4722 26.647 17.2022 26.519 17.1422 26.474C17.0362 26.395 16.9222 26.194 16.8112 25.888C16.7582 25.76 16.6932 25.638 16.6182 25.521C16.3572 25.113 16.2212 24.794 16.1782 24.49C16.1562 24.332 16.1272 24.175 16.0912 24.02C16.0682 23.935 16.0522 23.848 16.0432 23.76C16.0432 23.623 15.9482 23.5 15.6482 23.25C15.4762 23.113 15.3252 22.952 15.2002 22.77C15.0662 22.58 14.9162 22.401 14.7532 22.235C14.3862 21.861 14.2772 21.703 14.1562 21.375C14.0732 21.172 13.9732 20.976 13.8572 20.79C13.6232 20.416 13.5622 20.288 13.4062 19.838C13.2312 19.335 13.0712 19.122 12.6302 18.806C12.4282 18.652 12.2332 18.487 12.0482 18.313C11.6032 17.896 11.4512 17.821 10.9182 17.76C10.6972 17.735 10.4772 17.696 10.2602 17.645C10.1222 17.607 9.98116 17.585 9.83816 17.578C9.49016 17.58 8.92416 17.888 8.73416 18.178C8.68016 18.26 8.59416 18.456 8.54416 18.612C8.49816 18.754 8.44516 18.893 8.38416 19.029C8.31016 19.179 7.81316 19.693 7.67216 19.767C7.53516 19.837 7.45416 19.827 7.15216 19.694C6.72916 19.506 6.68716 19.482 6.50616 19.314C6.36616 19.184 6.28516 19.14 6.04616 19.069C5.70016 18.965 5.49816 18.845 5.17416 18.549C5.03916 18.428 4.82916 18.239 4.70616 18.132C4.42016 17.882 4.24216 17.545 4.13916 17.059C4.10316 16.884 4.05616 16.711 3.99916 16.541C3.92916 16.353 3.85916 16.134 3.73816 15.721C3.64216 15.395 3.49816 15.244 3.00616 14.955C2.55616 14.691 2.38316 14.54 2.07416 14.144C1.93916 13.97 1.78216 13.815 1.60516 13.684C1.24516 13.423 1.10416 13.29 0.878157 13.004C0.768157 12.864 0.643157 12.736 0.506157 12.622C0.176157 12.374 -0.0168425 12.052 0.00115747 11.773L0.0111575 11.616L0.147157 11.618C0.222157 11.62 1.04116 11.638 1.96716 11.661C4.84516 11.73 6.64816 11.764 7.36016 11.765H8.04316L8.06516 11.257C8.08816 10.697 8.14816 6.275 8.18316 2.465L8.20616 0.027L11.8502 0.019L15.4952 0.01L15.5052 2.356L15.5152 4.702L15.5972 4.9C15.6972 5.146 15.9022 5.368 16.0872 5.434C16.1662 5.462 16.3632 5.5 16.5262 5.518C16.8792 5.558 17.0222 5.624 17.2502 5.854C17.4712 6.077 17.5802 6.14 17.8282 6.187C17.9402 6.209 18.1542 6.267 18.3042 6.316C18.5512 6.398 18.6222 6.406 19.0922 6.406H19.6082L19.7152 6.506C19.7742 6.561 19.8552 6.663 19.8942 6.732C19.9802 6.882 20.0692 6.912 20.2762 6.86C20.3602 6.84 20.5402 6.813 20.6772 6.802L20.9272 6.782L21.1052 6.956L21.2842 7.132L21.4562 7.109C21.5682 7.092 21.6822 7.103 21.7882 7.143C21.9912 7.215 22.0912 7.189 22.1882 7.041C22.2912 6.884 22.3962 6.887 22.7332 7.054C23.2132 7.293 23.3662 7.302 23.6542 7.107C23.7462 7.045 23.8792 6.98 23.9522 6.961C24.3112 6.887 24.6772 6.855 25.0432 6.865C25.2582 6.879 25.3652 6.87 25.4562 6.833C25.6222 6.764 25.8372 6.793 26.1062 6.916C26.2292 6.972 26.6152 7.132 26.9662 7.272C27.5292 7.497 27.6392 7.529 27.9192 7.556C28.3012 7.591 28.4642 7.652 28.5512 7.793C28.6232 7.91 28.6172 7.827 28.7092 9.896C28.7892 11.713 28.8132 11.853 29.1312 12.404C29.2232 12.562 29.3442 12.82 29.4012 12.979C29.4582 13.137 29.6162 13.478 29.7522 13.736L30.0002 14.206L29.9982 14.48C29.9962 14.697 29.9682 14.846 29.8632 15.189C29.7362 15.609 29.7312 15.641 29.7232 16.183C29.7152 16.76 29.6962 16.87 29.5532 17.15C29.5002 17.254 29.4722 17.369 29.4732 17.485C29.4782 17.572 29.4602 17.659 29.4202 17.737C29.3542 17.83 29.0872 17.965 28.8822 18.01C28.6392 18.091 28.4022 18.186 28.1702 18.294C27.8632 18.432 27.5892 18.545 27.5612 18.545C27.4892 18.545 27.4162 18.453 27.3212 18.239C27.2002 17.97 27.0132 17.896 26.8612 18.055C26.7332 18.189 26.7812 18.395 26.9962 18.638C27.1682 18.833 27.1452 18.88 26.5722 19.488C26.1532 19.935 25.9332 20.101 25.4222 20.358C24.6982 20.723 24.4482 20.778 24.1282 20.643L23.9552 20.57L23.8252 20.643L23.6942 20.717L23.4902 20.533C23.4212 20.465 23.3452 20.404 23.2652 20.349C23.2542 20.349 23.2922 20.432 23.3502 20.533C23.4942 20.782 23.5972 21.062 23.5702 21.129C23.5592 21.16 23.4672 21.206 23.3582 21.236C22.9482 21.347 22.9282 21.364 22.7242 21.746C22.5992 21.981 22.5712 22.011 22.3712 22.119C22.2032 22.209 22.1352 22.269 22.0712 22.386C21.9412 22.616 21.8292 22.716 21.5512 22.849C21.2652 22.985 21.2312 23.042 21.3482 23.195C21.4302 23.305 21.4282 23.381 21.3312 23.718C21.2632 23.959 21.1952 24.053 21.0432 24.117L20.9152 24.17L21.0452 24.263C21.1582 24.343 21.1772 24.375 21.1772 24.483C21.1772 24.553 21.1452 24.697 21.1072 24.805C21.0252 25.034 21.0352 25.138 21.1792 25.525C21.2332 25.67 21.3092 25.973 21.3482 26.199C21.4732 26.917 21.5152 27.069 21.6792 27.387C21.8002 27.623 21.8302 27.71 21.8042 27.751C21.7672 27.808 21.3312 27.995 21.2442 27.99C21.2042 27.987 21.1642 27.982 21.1242 27.974Z" fill="var(--fill-0, #EFD19F)"/>
</g>
</svg>
